<?xml version="1.0" encoding="UTF-8"?>
<svg width="1200pt" height="1200pt" version="1.1" viewBox="0 0 1200 1200" xmlns="http://www.w3.org/2000/svg">
 <path d="m971.12 248.34c-99.723-154.23-310.13-186.14-376.5-187.98h-0.37109c-66.375 1.8242-276.77 33.746-376.5 187.98-56.531 87.527-80.051 196.56-72.395 299.2 2.9297 38.113 6.7422 76.957 15.504 114.14 7.1172 30.266 20.242 57.805 20.242 89.34-0.17969 50.855-9.6602 108.84 13.68 156.25 17.328 35.914 60.527 59.449 98.832 67.094 26.785 5.2812 59.797-2.543 85.141 9.3125 12.949 6.1797 19.141 16.391 23.328 29.891 5.4844 17.316-1.2617 46.488 6.7422 61.078 4.2227 7.6914 10.836 13.754 18.648 18.742v0.023437l0.070313 0.035157c7.1758 4.5859 15.336 8.2422 23.605 11.387l0.40625 0.20312c0.023437 0 0.035156-0.011718 0.046875-0.011718 0.35938-0.035156 0.66016-0.3125 0.66016-0.68359v-1.0312h0.023437v-0.21484c0-11.578 9.3945-20.965 20.977-20.965 11.543 0 20.914 9.3477 20.953 20.891v15.781c0.011719 0.37109 0.30078 0.79297 0.66016 0.92578 0 0 4.5 1.5703 11.578 3.7305 1.6094 0.49219 3.2148 0.96094 4.8242 1.4297 1.4023 0.42188 2.8672 0.83984 4.3672 1.2617 2.125 0.58984 4.2461 1.1758 6.3828 1.7383 0.75781 0.19141 1.5117 0.38281 2.3047 0.60156 2.5547 0.66016 5.2188 1.3203 7.9453 1.9453 0.058594 0.023438 0.13281 0.023438 0.20312 0.035156 2.4727 0.58984 4.9453 1.0938 7.4414 1.6211 0.085938 0.023438 0.17969 0.085938 0.26562 0.097656 6.2773 1.6094 15.406 2.9297 22.414 3.7812 0.73047 0.10938 1.4141 0.20312 2.1016 0.26562 4.7031 0.5625 8.0508 0.88672 8.0508 0.88672s0-0.023438 0.011719-0.023438c0.37109 0.023438 0.66016-0.25391 0.63672-0.61328 0 0-0.058594-3.9258 0.058594-5.6055v-1.2344c0-8.0273 4.4883-14.965 11.062-18.504 2.9531-1.5859 6.3242-2.4844 9.8984-2.4844s6.9375 0.89844 9.8867 2.4844c6.6016 3.5391 11.062 10.477 11.062 18.504v1.2344c0.13281 1.6797 0.070312 5.6055 0.070312 5.6055-0.035156 0.35938 0.25391 0.63672 0.63672 0.61328 0 0 0 0.023438 0.023438 0.023438 0 0 3.3242-0.32422 8.0391-0.88672 0.67188-0.070312 1.3672-0.16797 2.1133-0.26562 6.9844-0.85156 16.129-2.1836 22.391-3.7812 0.12109-0.011718 0.19141-0.070312 0.28906-0.097656 2.4727-0.52734 4.957-1.0312 7.4141-1.6211 0.085938-0.011718 0.13281-0.011718 0.21484-0.035156 2.7109-0.625 5.3633-1.2852 7.9453-1.9453 0.76953-0.21484 1.5469-0.40625 2.3047-0.60156 2.1133-0.5625 4.2461-1.1523 6.3594-1.7383 1.5234-0.42188 2.9766-0.83984 4.3672-1.2461 1.6211-0.45703 3.2383-0.96094 4.8359-1.4531 7.0938-2.1602 11.566-3.7305 11.566-3.7305 0.37109-0.13281 0.64844-0.52734 0.67188-0.92578h0.011718v-15.781c0.046875-11.543 9.3945-20.891 20.965-20.891 11.594 0 20.953 9.3828 20.953 20.965v0.21484h0.023437v1.0312c0 0.35937 0.28906 0.64844 0.66016 0.68359 0 0.011719 0.035156 0.011719 0.046875 0.011719l0.42188-0.17969c8.2695-3.1797 16.43-6.8281 23.594-11.41l0.085937-0.035156 0.011719-0.023438c7.8008-4.9922 14.398-11.062 18.648-18.742 8.0039-14.594 1.2461-43.754 6.7422-61.078 4.1992-13.5 10.379-23.699 23.328-29.891 25.344-11.844 58.344-4.0312 85.152-9.3008 38.293-7.6562 81.504-31.188 98.82-67.105 23.328-47.398 13.848-105.38 13.691-156.25 0-31.535 13.117-59.074 20.23-89.34 8.7461-37.199 12.574-76.031 15.492-114.14 7.6797-102.63-15.852-211.66-72.371-299.19zm-470.41 567.04c-16.223 12.047-35.363 20.426-53.977 28.066-19.871 8.3984-39.926 16.98-61.066 21.336-11.676 2.5664-24.254 4.3789-36.098 4.5586-36.66 0.92578-68.207-14.953-83.699-49.031-10.02-22.066-14.762-46.488-17.148-70.57-1.6328-17.316-3.457-34.656-1.9922-51.238-0.17969 0.19141-0.53906 0.35938-0.73047 0.55078 0.73047-16.234 6.0117-28.801 14.027-40.285 0.19141-0.16797 0.19141-0.37109 0.37109-0.55078 0.19141-0.35938 0.55078-0.89844 0.92578-1.2734 1.4531-2.0039 3.0977-4.1992 4.7266-6.3828 2.375-3.0977 5.1133-5.832 7.8477-8.5547 0.91016-0.92578 1.8125-2.0156 2.7344-2.7461 15.504-12.383 31.727-7.8359 45.949 0.35938 4.7383 2.7344 9.4922 6.0234 13.68 9.1211 24.254 17.844 47.41 37.754 75.121 50.316 13.488 6.2031 27.527 11.484 42.109 14.051 15.324 2.7227 31.355 1.0781 46.309 6 15.684 4.9336 30.816 23.34 32.461 39.383 2.1953 23.172-13.863 43.762-31.551 56.891zm122.91 107.2c-9.6602 6.5508-19.141-3.6484-29.172-4.0312-10.031 0.35938-19.512 10.586-29.172 4.0195-10.957-7.4648-6.7578-25.715-4.3906-36.098 2.0156-8.7461 4.9336-17.316 7.4883-25.895 2.7344-9.8398 6.7422-19.703 11.137-29.172 1.6328-3.8281 3.2656-7.668 6.0117-10.934 1.6328-1.8477 5.8203-5.6758 8.5664-5.832h0.37109 0.35938c2.7461 0.16797 6.9375 3.9844 8.5664 5.832 2.7344 3.2656 4.3906 7.1055 6.0234 10.934 4.3555 9.4688 8.3867 19.32 11.125 29.172 2.543 8.5781 5.4727 17.148 7.4648 25.895 2.375 10.383 6.5508 28.637-4.3789 36.109zm316.52-172.82c-2.3633 24.086-7.1055 48.504-17.148 70.57-15.492 34.117-47.039 49.957-83.699 49.031-11.832-0.17969-24.422-1.9922-36.098-4.5586-21.156-4.3555-41.195-12.938-61.078-21.312-18.613-7.668-37.738-16.043-53.965-28.094-17.688-13.129-33.73-33.73-31.547-56.879 1.6562-16.043 16.777-34.453 32.461-39.371 14.941-4.9336 30.996-3.2891 46.309-6.0117 14.578-2.5664 28.621-7.8477 42.109-14.051 27.719-12.574 50.867-32.473 75.121-50.316 4.2109-3.0977 8.9414-6.3711 13.68-9.1211 14.23-8.207 30.457-12.742 45.949-0.35937 0.91016 0.73047 1.8125 1.8242 2.7461 2.7461 2.7344 2.7227 5.4609 5.4609 7.8359 8.5547 1.6445 2.1953 3.2773 4.3789 4.7266 6.3828 0.37109 0.37109 0.74219 0.91016 0.92578 1.2734 0.16797 0.17969 0.16797 0.38281 0.35938 0.55078 8.0273 11.484 13.309 24.059 14.051 40.285-0.20312-0.19141-0.57422-0.35938-0.74219-0.55078 1.4609 16.578-0.36328 33.906-1.9961 51.23z" fill="#70d258"/>
</svg>
